<svg xmlns="http://www.w3.org/2000/svg" viewBox="0 0 64 64" shape-rendering="crispEdges">
  <rect x="18" y="58" width="28" height="4" fill="#17202a" opacity=".55"/>
  <rect x="18" y="9" width="28" height="4" fill="#17202a"/>
  <rect x="14" y="13" width="36" height="9" fill="#17202a"/>
  <rect x="10" y="22" width="44" height="12" fill="#17202a"/>
  <rect x="14" y="34" width="36" height="24" fill="#17202a"/>
  <rect x="18" y="6" width="8" height="8" fill="#e7edf0"/>
  <rect x="26" y="4" width="12" height="8" fill="#ffffff"/>
  <rect x="38" y="6" width="8" height="8" fill="#d5dde2"/>
  <rect x="16" y="14" width="32" height="9" fill="#f2f4f1"/>
  <rect x="14" y="22" width="36" height="12" fill="#f2c39a"/>
  <rect x="12" y="25" width="6" height="6" fill="#f2c39a"/>
  <rect x="46" y="25" width="6" height="6" fill="#f2c39a"/>
  <rect x="22" y="25" width="5" height="4" fill="#243443"/>
  <rect x="37" y="25" width="5" height="4" fill="#243443"/>
  <rect x="27" y="31" width="10" height="3" fill="#7a3d2e"/>
  <rect x="16" y="35" width="32" height="21" fill="#f7fbff"/>
  <rect x="22" y="38" width="20" height="18" fill="#244b6d"/>
  <rect x="29" y="38" width="6" height="18" fill="#f3b43f"/>
  <rect x="12" y="38" width="8" height="14" fill="#f7fbff"/>
  <rect x="44" y="38" width="8" height="14" fill="#f7fbff"/>
  <rect x="18" y="56" width="11" height="5" fill="#22303a"/>
  <rect x="35" y="56" width="11" height="5" fill="#22303a"/>
</svg>
