<svg xmlns="http://www.w3.org/2000/svg" viewBox="0 0 64 64" shape-rendering="crispEdges">
  <rect x="17" y="58" width="30" height="4" fill="#17202a" opacity=".55"/>
  <rect x="17" y="8" width="30" height="6" fill="#17202a"/>
  <rect x="13" y="14" width="38" height="10" fill="#17202a"/>
  <rect x="17" y="23" width="30" height="15" fill="#17202a"/>
  <rect x="14" y="37" width="36" height="21" fill="#17202a"/>
  <rect x="20" y="6" width="24" height="8" fill="#2f7e42"/>
  <rect x="16" y="14" width="32" height="8" fill="#4c9f51"/>
  <rect x="25" y="11" width="14" height="4" fill="#bfe67b"/>
  <rect x="19" y="23" width="26" height="14" fill="#e6a277"/>
  <rect x="22" y="27" width="5" height="4" fill="#101922"/>
  <rect x="37" y="27" width="5" height="4" fill="#101922"/>
  <rect x="27" y="34" width="10" height="3" fill="#7b3728"/>
  <rect x="16" y="38" width="32" height="18" fill="#314b35"/>
  <rect x="20" y="38" width="24" height="6" fill="#f56a28"/>
  <rect x="25" y="44" width="14" height="12" fill="#5fae58"/>
  <rect x="13" y="40" width="7" height="13" fill="#f56a28"/>
  <rect x="44" y="40" width="7" height="13" fill="#f56a28"/>
  <rect x="18" y="56" width="11" height="5" fill="#26333d"/>
  <rect x="35" y="56" width="11" height="5" fill="#26333d"/>
</svg>
