<svg xmlns="http://www.w3.org/2000/svg" viewBox="0 0 72 72" shape-rendering="crispEdges">
  <rect x="19" y="62" width="34" height="5" fill="#17202a" opacity=".5"/>
  <rect x="22" y="6" width="28" height="6" fill="#17202a"/>
  <rect x="14" y="12" width="44" height="44" fill="#17202a"/>
  <rect x="20" y="56" width="32" height="7" fill="#17202a"/>
  <rect x="24" y="8" width="24" height="6" fill="#d93f31"/>
  <rect x="16" y="14" width="40" height="40" fill="#e44b32"/>
  <rect x="22" y="20" width="28" height="28" fill="#ff7871"/>
  <rect x="29" y="24" width="14" height="6" fill="#fff4d8"/>
  <rect x="33" y="30" width="6" height="12" fill="#fff4d8"/>
  <rect x="32" y="44" width="8" height="5" fill="#fff4d8"/>
  <rect x="7" y="15" width="8" height="4" fill="#d93f31"/>
  <rect x="7" y="15" width="4" height="8" fill="#d93f31"/>
  <rect x="57" y="15" width="8" height="4" fill="#d93f31"/>
  <rect x="61" y="15" width="4" height="8" fill="#d93f31"/>
  <rect x="7" y="53" width="8" height="4" fill="#d93f31"/>
  <rect x="7" y="49" width="4" height="8" fill="#d93f31"/>
  <rect x="57" y="53" width="8" height="4" fill="#d93f31"/>
  <rect x="61" y="49" width="4" height="8" fill="#d93f31"/>
  <rect x="25" y="56" width="22" height="5" fill="#8b241f"/>
</svg>
