<svg width="1400" height="980" viewBox="0 0 1400 980" fill="none" xmlns="http://www.w3.org/2000/svg">
  <rect width="1400" height="980" rx="48" fill="#FFF6E6"/>
  <rect x="44" y="44" width="1312" height="892" rx="42" fill="#FFFAF0" stroke="#D9CCB8" stroke-width="5"/>
  <path d="M70 780C221 726 318 787 458 731C630 663 706 538 879 588C1042 635 1124 748 1330 671V936H70V780Z" fill="#E9E0CB"/>
  <circle cx="1135" cy="170" r="72" fill="#F8E0A8"/>
  <circle cx="1135" cy="170" r="42" fill="#DC6D2F"/>
  <circle cx="1135" cy="170" r="17" fill="#B8582A"/>
  <text x="104" y="126" fill="#244832" font-family="Georgia, serif" font-size="58" font-weight="800">Protokol Keselamatan Harian</text>
  <text x="108" y="174" fill="#6B6358" font-family="Arial, sans-serif" font-size="30" font-weight="700">Kenali tanda awal, lindungi diri, lalu evakuasi tertib</text>

  <g transform="translate(104 245)">
    <rect width="360" height="470" rx="34" fill="#E6F2DF" stroke="#78A886" stroke-width="4"/>
    <circle cx="78" cy="78" r="42" fill="#244832"/>
    <path d="M58 78h40M78 58v40" stroke="#FFF6E6" stroke-width="12" stroke-linecap="round"/>
    <text x="42" y="160" fill="#244832" font-family="Georgia, serif" font-size="36" font-weight="800">1. Tanda Awal</text>
    <text x="42" y="220" fill="#344039" font-family="Arial, sans-serif" font-size="25" font-weight="700">Lantai bergetar</text>
    <text x="42" y="260" fill="#344039" font-family="Arial, sans-serif" font-size="25" font-weight="700">Lampu bergoyang</text>
    <text x="42" y="300" fill="#344039" font-family="Arial, sans-serif" font-size="25" font-weight="700">Benda jatuh</text>
    <path d="M72 370c46-50 116-50 162 0" stroke="#4A7C59" stroke-width="10" stroke-linecap="round"/>
    <path d="M90 393c36-32 90-32 126 0" stroke="#4A7C59" stroke-width="10" stroke-linecap="round"/>
    <path d="M112 418c22-17 60-17 82 0" stroke="#4A7C59" stroke-width="10" stroke-linecap="round"/>
  </g>

  <g transform="translate(520 245)">
    <rect width="360" height="470" rx="34" fill="#FFF0D8" stroke="#D9BC8B" stroke-width="4"/>
    <rect x="89" y="89" width="182" height="34" rx="8" fill="#7B5B3A"/>
    <rect x="111" y="123" width="22" height="126" rx="6" fill="#7B5B3A"/>
    <rect x="227" y="123" width="22" height="126" rx="6" fill="#7B5B3A"/>
    <circle cx="180" cy="224" r="34" fill="#244832"/>
    <path d="M147 285c32-58 98-58 130 0" stroke="#244832" stroke-width="28" stroke-linecap="round"/>
    <text x="42" y="160" fill="#244832" font-family="Georgia, serif" font-size="36" font-weight="800">2. Drop Cover Hold</text>
    <text x="42" y="345" fill="#344039" font-family="Arial, sans-serif" font-size="25" font-weight="700">Merunduk</text>
    <text x="42" y="385" fill="#344039" font-family="Arial, sans-serif" font-size="25" font-weight="700">Berlindung</text>
    <text x="42" y="425" fill="#344039" font-family="Arial, sans-serif" font-size="25" font-weight="700">Berpegangan</text>
  </g>

  <g transform="translate(936 245)">
    <rect width="360" height="470" rx="34" fill="#F5E4D8" stroke="#DC6D2F" stroke-width="4"/>
    <path d="M76 342C126 266 216 240 282 151" stroke="#DC6D2F" stroke-width="14" stroke-dasharray="28 22" stroke-linecap="round"/>
    <circle cx="282" cy="151" r="54" fill="#E6F2DF" stroke="#4A7C59" stroke-width="7"/>
    <text x="246" y="158" fill="#244832" font-family="Arial, sans-serif" font-size="23" font-weight="900">AMAN</text>
    <circle cx="95" cy="340" r="22" fill="#244832"/>
    <path d="M95 366v66M95 392l-42 31M95 392l43 31" stroke="#244832" stroke-width="12" stroke-linecap="round"/>
    <text x="42" y="160" fill="#244832" font-family="Georgia, serif" font-size="36" font-weight="800">3. Evakuasi</text>
    <text x="42" y="220" fill="#344039" font-family="Arial, sans-serif" font-size="25" font-weight="700">Cek cedera</text>
    <text x="42" y="260" fill="#344039" font-family="Arial, sans-serif" font-size="25" font-weight="700">Ambil tas siaga</text>
    <text x="42" y="300" fill="#344039" font-family="Arial, sans-serif" font-size="25" font-weight="700">Menuju titik kumpul</text>
  </g>

  <g transform="translate(152 780)">
    <rect width="1096" height="90" rx="28" fill="#244832"/>
    <text x="60" y="58" fill="#FFF6E6" font-family="Arial, sans-serif" font-size="31" font-weight="900">Rutin harian: amankan furnitur, lapangkan jalur keluar, cek tas siaga, dan simpan nomor darurat.</text>
  </g>
</svg>
