<svg width="1500" height="520" viewBox="0 0 1500 520" fill="none" xmlns="http://www.w3.org/2000/svg">
  <rect width="1500" height="520" rx="44" fill="#FFF6E6"/>
  <rect x="34" y="34" width="1432" height="452" rx="38" fill="#244832"/>
  <path d="M34 340C190 292 328 365 492 303C665 237 765 144 940 195C1105 243 1245 347 1466 277V486H34V340Z" fill="#78A886" opacity=".55"/>
  <path d="M80 398C239 360 344 430 510 386C700 336 806 252 986 297C1157 340 1265 416 1428 365" stroke="#F8E0A8" stroke-width="10" stroke-linecap="round" opacity=".55"/>
  <circle cx="1266" cy="134" r="75" fill="#F8E0A8"/>
  <circle cx="1266" cy="134" r="41" fill="#DC6D2F"/>
  <path d="M1227 134h78M1266 95v78" stroke="#FFF6E6" stroke-width="13" stroke-linecap="round"/>
  <g transform="translate(1005 198)">
    <circle cx="126" cy="82" r="48" fill="#F7DDA4"/>
    <path d="M78 178c25-62 70-88 118-62 30 16 47 45 56 86H42c7-10 20-18 36-24Z" fill="#FFF6E6"/>
    <path d="M98 80c36 36 73 36 111 0" stroke="#244832" stroke-width="10" stroke-linecap="round"/>
    <path d="M84 178l-42 100h78l24-73 28 73h84l-44-100" fill="#DC6D2F"/>
    <path d="M134 152l42 52 76-96" stroke="#244832" stroke-width="18" stroke-linecap="round" stroke-linejoin="round"/>
    <rect x="214" y="230" width="128" height="108" rx="22" fill="#FFF6E6"/>
    <path d="M244 230v-32c0-40 68-40 68 0v32" stroke="#FFF6E6" stroke-width="18" stroke-linecap="round"/>
    <path d="M254 280h48M278 256v48" stroke="#4A7C59" stroke-width="13" stroke-linecap="round"/>
  </g>
  <g transform="translate(92 82)">
    <text x="0" y="52" fill="#F8E0A8" font-family="Arial, sans-serif" font-size="28" font-weight="900" letter-spacing="7">KOMUNITAS SIAGA</text>
    <text x="0" y="140" fill="#FFF6E6" font-family="Georgia, serif" font-size="72" font-weight="900">Sudah siapkah kamu</text>
    <text x="0" y="218" fill="#FFF6E6" font-family="Georgia, serif" font-size="72" font-weight="900">sebagai pahlawan</text>
    <text x="0" y="296" fill="#FFF6E6" font-family="Georgia, serif" font-size="72" font-weight="900">penanggung gempa?</text>
    <rect x="0" y="332" width="520" height="16" rx="8" fill="#DC6D2F"/>
    <text x="0" y="398" fill="#FFF6E6" font-family="Arial, sans-serif" font-size="28" font-weight="700">Cek tas siaga, rute aman, kontak keluarga, dan protokol harian.</text>
  </g>
</svg>
