<svg xmlns="http://www.w3.org/2000/svg" viewBox="0 0 64 64" shape-rendering="crispEdges">
  <rect x="16" y="58" width="32" height="4" fill="#17202a" opacity=".55"/>
  <rect x="17" y="7" width="30" height="10" fill="#17202a"/>
  <rect x="13" y="17" width="38" height="9" fill="#17202a"/>
  <rect x="18" y="25" width="28" height="14" fill="#17202a"/>
  <rect x="14" y="39" width="36" height="19" fill="#17202a"/>
  <rect x="20" y="6" width="24" height="10" fill="#f56a28"/>
  <rect x="16" y="16" width="32" height="8" fill="#ffb347"/>
  <rect x="25" y="8" width="14" height="8" fill="#fff1ad"/>
  <rect x="20" y="25" width="24" height="13" fill="#e6a277"/>
  <rect x="23" y="29" width="5" height="4" fill="#101922"/>
  <rect x="37" y="29" width="5" height="4" fill="#101922"/>
  <rect x="27" y="36" width="10" height="3" fill="#7b3728"/>
  <rect x="17" y="41" width="30" height="16" fill="#e44b32"/>
  <rect x="25" y="42" width="14" height="12" fill="#fff2c2"/>
  <rect x="29" y="44" width="6" height="8" fill="#e44b32"/>
  <rect x="14" y="43" width="7" height="12" fill="#ffb347"/>
  <rect x="43" y="43" width="7" height="12" fill="#ffb347"/>
  <rect x="18" y="57" width="11" height="5" fill="#222d36"/>
  <rect x="35" y="57" width="11" height="5" fill="#222d36"/>
</svg>
